<?xml version="1.0" encoding="utf-8"?>
<!-- Svg Vector Icons : http://www.onlinewebfonts.com/icon -->
<!DOCTYPE svg PUBLIC "-//W3C//DTD SVG 1.1//EN" "http://www.w3.org/Graphics/SVG/1.1/DTD/svg11.dtd">
<svg version="1.1" xmlns="http://www.w3.org/2000/svg" xmlns:xlink="http://www.w3.org/1999/xlink" x="0px" y="0px" viewBox="0 0 1000 1000" enable-background="new 0 0 1000 1000" xml:space="preserve">
    <metadata> Svg Vector Icons : http://www.onlinewebfonts.com/icon </metadata>
    <g fill="white">
        <path d="M310.7,979.9c-55.8,0-101.3-45.4-101.3-101.3c0-55.8,45.4-101.3,101.3-101.3c55.8,0,101.3,45.4,101.3,101.3C412,934.5,366.6,979.9,310.7,979.9z M310.7,823.1c-30.6,0-55.6,24.9-55.6,55.6c0,30.6,24.9,55.6,55.6,55.6c30.6,0,55.6-24.9,55.6-55.6C366.3,848,341.4,823.1,310.7,823.1z" fill="white"/>
        <path d="M862.8,979.9c-55.8,0-101.3-45.4-101.3-101.3c0-55.8,45.4-101.3,101.3-101.3c55.8,0,101.3,45.4,101.3,101.3C964,934.5,918.6,979.9,862.8,979.9z M862.8,823.1c-30.6,0-55.6,24.9-55.6,55.6c0,30.6,24.9,55.6,55.6,55.6c30.6,0,55.6-24.9,55.6-55.6C918.3,848,893.4,823.1,862.8,823.1z" fill="white"/>
        <path d="M862.8,823.1h-552c-12.6,0-22.9-10.2-22.9-22.9c0-12.6,10.2-22.9,22.9-22.9h552c12.6,0,22.9,10.2,22.9,22.9C885.6,812.8,875.4,823.1,862.8,823.1z" fill="white"/>
        <path d="M837.3,667.7l-536.1-1.3c-12.6,0-22.8-10.3-22.8-22.9c0-12.6,10.3-22.8,22.9-22.8c0,0,0,0,0.1,0L836,622c2.7-0.2,5.2-2.5,5.6-3.9l102.5-430.2c-1.5-3.6-4-5.2-7.7-5.2h-730c-12.6,0-22.9-10.2-22.9-22.9s10.2-22.9,22.9-22.9h730c17.2,0,33.5,7.8,43.5,20.8c9.2,11.9,12.3,26.9,8.5,41.2L886,629.2C880.2,651,860.8,666.2,837.3,667.7z"/>
        <path d="M310.7,666.3c-10.3,0-19.6-7-22.2-17.4L145.6,65.8H32.9C20.2,65.8,10,55.6,10,43c0-12.6,10.2-22.9,22.9-22.9h148.6L332.9,638c3,12.3-4.5,24.6-16.8,27.6C314.4,666.1,312.5,666.3,310.7,666.3z"/><path d="M310.7,823.1c-55.8,0-101.3-45.4-101.3-101.3c0-55.8,45.4-101.3,101.3-101.3c12.6,0,22.9,10.2,22.9,22.9c0,12.6-10.2,22.9-22.9,22.9c-30.6,0-55.6,24.9-55.6,55.6c0,30.6,24.9,55.6,55.6,55.6c12.6,0,22.9,10.2,22.9,22.9S323.4,823.1,310.7,823.1z" fill="white"/>
        <path d="M941.2,318.4h-717c-12.6,0-22.9-10.2-22.9-22.9c0-12.6,10.2-22.9,22.9-22.9h717c12.6,0,22.9,10.2,22.9,22.9C964,308.1,953.8,318.4,941.2,318.4z" fill="white"/>
    </g>
</svg>