<?xml version="1.0" encoding="utf-8"?>
<!-- Svg Vector Icons : http://www.onlinewebfonts.com/icon -->
<!DOCTYPE svg PUBLIC "-//W3C//DTD SVG 1.1//EN" "http://www.w3.org/Graphics/SVG/1.1/DTD/svg11.dtd">
<svg version="1.1" xmlns="http://www.w3.org/2000/svg" xmlns:xlink="http://www.w3.org/1999/xlink" x="0px" y="0px" viewBox="0 0 1000 1000" enable-background="new 0 0 1000 1000" xml:space="preserve">
    <metadata> Svg Vector Icons : http://www.onlinewebfonts.com/icon </metadata>
    <g fill="white">
        <path d="M990,876.6c0,30.6-12.3,73.5-67.4,73.5H77.4c-55.1,0-67.4-42.9-67.4-73.5c0-104.1,91.8-251.2,257.2-251.2c0,0,48.9,79.7,232.7,79.7c183.8,0,232.7-79.7,232.7-79.7C898.2,625.5,990,772.4,990,876.6L990,876.6L990,876.6z"/>
        <path d="M505.5,49.9c-142,0-257.1,128.6-257.1,287.3s115.1,287.3,257,287.3s257-128.6,257-287.3C762.5,178.5,647.4,49.9,505.5,49.9L505.5,49.9L505.5,49.9z"/>
    </g>
</svg>